<svg xmlns="http://www.w3.org/2000/svg" version="1.1" xmlns:xlink="http://www.w3.org/1999/xlink" xmlns:svgjs="http://svgjs.dev/svgjs" width="2000" height="1200" preserveAspectRatio="none" viewBox="0 0 2000 1200"><g mask="url(&quot;#SvgjsMask1049&quot;)" fill="none"><path d="M649.899,740.966C727.077,741.151,796.848,694.874,833.331,626.864C867.952,562.326,859.417,484.522,820.872,422.248C784.388,363.304,719.136,333.923,649.899,330.507C572.91,326.708,487.383,338.159,446.971,403.799C405.168,471.698,426.865,557.673,467.982,625.989C507.63,691.864,573.013,740.782,649.899,740.966" fill="rgba(255, 67, 148, 0.5)" class="triangle-float3"></path><path d="M1850.442,1343.769C1941.52,1342.284,2020.784,1285.605,2064.932,1205.929C2107.689,1128.764,2102.054,1038.419,2063.637,959.004C2018.532,865.763,1954.017,763.382,1850.442,762.533C1746.085,761.677,1678.049,862.253,1631.103,955.458C1589.674,1037.71,1578.189,1132.938,1623.484,1213.127C1669.497,1294.588,1756.896,1345.294,1850.442,1343.769" fill="rgba(255, 67, 148, 0.5)" class="triangle-float2"></path><path d="M752.839,506.938C810.069,506.499,862.642,477.689,892.836,429.07C924.893,377.45,935.753,312.785,906.482,259.536C876.251,204.54,815.588,173.415,752.839,174.388C691.73,175.335,637.082,210.845,607.232,264.176C578.078,316.264,578.37,380.056,609.073,431.246C638.93,481.025,694.794,507.383,752.839,506.938" fill="rgba(255, 67, 148, 0.5)" class="triangle-float3"></path><path d="M198.24,663.283C271.046,668.754,352.453,665.183,394.197,605.283C440.847,538.343,443.824,444.302,397.794,376.935C355.884,315.597,272.369,313.619,198.24,318.487C134.53,322.671,71.412,345.199,39.444,400.466C7.435,455.802,14.363,524.507,47.422,579.222C79.323,632.02,136.726,658.66,198.24,663.283" fill="rgba(255, 67, 148, 0.5)" class="triangle-float3"></path><path d="M974.538995026948 506.4458686902906L1197.2957058243742 312.8064142345231 1003.6562513686067 90.04970343709681 780.8995405711805 283.68915789286433z" fill="rgba(255, 67, 148, 0.5)" class="triangle-float2"></path><path d="M418.7970590686956 922.856718454977L122.57166829931157 975.0892472185277 174.80419706286227 1271.3146379879117 471.0295878322463 1219.082109224361z" fill="rgba(255, 67, 148, 0.5)" class="triangle-float3"></path><path d="M-224.14 940.75 a262.23 262.23 0 1 0 524.46 0 a262.23 262.23 0 1 0 -524.46 0z" fill="rgba(255, 67, 148, 0.5)" class="triangle-float1"></path><path d="M621.4500781731967 112.01090662469636L558.2784953781664-61.55159065585744 384.71599809761267 1.619992139172865 447.887580892643 175.18248941972666z" fill="rgba(255, 67, 148, 0.5)" class="triangle-float1"></path><path d="M1202.58 598.31 a310.82 310.82 0 1 0 621.64 0 a310.82 310.82 0 1 0 -621.64 0z" fill="rgba(255, 67, 148, 0.5)" class="triangle-float1"></path><path d="M1417.2085780369116 657.5837790518807L1397.604078406382 433.5033229054637 1173.5236222599651 453.10782253599325 1193.1281218904946 677.1882786824102z" fill="rgba(255, 67, 148, 0.5)" class="triangle-float3"></path><path d="M1483.6644002575085 427.6635730129823L1196.8531071135624 643.7913845768228 1412.9809186774028 930.602677720769 1699.792211821349 714.4748661569284z" fill="rgba(255, 67, 148, 0.5)" class="triangle-float2"></path><path d="M127.6676950060851 248.22011205263914L401.22001392875507 375.77965327233875 528.7795551484547 102.22733434966875 255.2272362257847-25.33220687003086z" fill="rgba(255, 67, 148, 0.5)" class="triangle-float2"></path><path d="M1777.898360541083 335.1445230156128L2006.4903199356604 441.73870427396076 2113.084501194008 213.14674487938333 1884.4925417994311 106.55256362103538z" fill="rgba(255, 67, 148, 0.5)" class="triangle-float2"></path><path d="M928.622,805.552C1003.885,807.122,1081.3,780.11,1118.803,714.838C1156.196,649.758,1137.793,570.936,1101.022,505.502C1063.326,438.422,1005.533,378.74,928.622,376.409C848.284,373.974,775.024,423.597,737.116,494.471C701.19,561.639,711.773,642.315,751.705,707.181C789.618,768.767,856.318,804.044,928.622,805.552" fill="rgba(255, 67, 148, 0.5)" class="triangle-float3"></path><path d="M1523.97 836.52 a399.49 399.49 0 1 0 798.98 0 a399.49 399.49 0 1 0 -798.98 0z" fill="rgba(255, 67, 148, 0.5)" class="triangle-float1"></path><path d="M450.64 565.03 a330.25 330.25 0 1 0 660.5 0 a330.25 330.25 0 1 0 -660.5 0z" fill="rgba(255, 67, 148, 0.5)" class="triangle-float3"></path><path d="M1301.064,684.771C1410.909,686.885,1534.619,676.674,1591.041,582.404C1648.445,486.492,1603.884,369.222,1547.791,272.538C1491.966,176.315,1412.145,88.601,1301.064,82.588C1180.39,76.056,1061.908,137.383,1003.285,243.063C946.163,346.038,963.973,473.961,1029.798,571.602C1088.498,658.674,1196.073,682.75,1301.064,684.771" fill="rgba(255, 67, 148, 0.5)" class="triangle-float1"></path><path d="M674.3179538227507 688.96284439222L418.8999995397198 466.9314041338297 196.86855928132957 722.3493584168607 452.28651356436046 944.3807986752508z" fill="rgba(255, 67, 148, 0.5)" class="triangle-float1"></path><path d="M624.2 1027.35 a362.27 362.27 0 1 0 724.54 0 a362.27 362.27 0 1 0 -724.54 0z" fill="rgba(255, 67, 148, 0.5)" class="triangle-float2"></path><path d="M1184.97 810.22 a236.81 236.81 0 1 0 473.62 0 a236.81 236.81 0 1 0 -473.62 0z" fill="rgba(255, 67, 148, 0.5)" class="triangle-float1"></path></g><defs><mask id="SvgjsMask1049"><rect width="2000" height="1200" fill="#ffffff"></rect></mask><style>
                @keyframes float1 {
                    0%{transform: translate(0, 0)}
                    50%{transform: translate(-10px, 0)}
                    100%{transform: translate(0, 0)}
                }

                .triangle-float1 {
                    animation: float1 5s infinite;
                }

                @keyframes float2 {
                    0%{transform: translate(0, 0)}
                    50%{transform: translate(-5px, -5px)}
                    100%{transform: translate(0, 0)}
                }

                .triangle-float2 {
                    animation: float2 4s infinite;
                }

                @keyframes float3 {
                    0%{transform: translate(0, 0)}
                    50%{transform: translate(0, -10px)}
                    100%{transform: translate(0, 0)}
                }

                .triangle-float3 {
                    animation: float3 6s infinite;
                }
            </style></defs></svg>