<svg xmlns="http://www.w3.org/2000/svg" version="1.1" xmlns:xlink="http://www.w3.org/1999/xlink" xmlns:svgjs="http://svgjs.dev/svgjs" width="1500" height="720" preserveAspectRatio="none" viewBox="0 0 1500 720"><g mask="url(&quot;#SvgjsMask1122&quot;)" fill="none"><path d="M51.04 180C40.9 149.32 8.55 165.16 0 135C-16.97 75.16 -38.57 28.93 0 0C51.43 -38.57 90 0 180 0C270 0 270 0 360 0C450 0 450 0 540 0C594 0 595.88 -9.06 648 0C685.88 6.59 685.7 31.3 720 31.3C743.3 31.3 737.95 4.39 763.2 0C827.95 -11.26 831.6 0 900 0C990 0 990 0 1080 0C1156.33 0 1162.04 -12.46 1232.66 0C1252.04 3.42 1240.42 28.55 1260 31.76C1344.09 45.55 1351.87 44.15 1440 34C1489.69 28.27 1486.48 9.28 1535.63 0C1576.48 -7.72 1606.54 -28.72 1620 0C1648.72 61.28 1620 90 1620 180C1620 270 1620 270 1620 360C1620 450 1620 450 1620 540C1620 630 1665 675 1620 720C1575 765 1530 720 1440 720C1350 720 1350 720 1260 720C1185.39 720 1171.96 741.49 1110.79 720C1081.96 709.87 1103.87 656.76 1080 656.76C1041.67 656.76 1037.4 702.08 986.4 720C947.4 733.7 943.2 720 900 720C810 720 810 720 720 720C630 720 630 720 540 720C450 720 450 720 360 720C270 720 270 720 180 720C90 720 45 765 0 720C-45 675 0 630 0 540C0 477.58 -21.35 466.84 0 415.16C15.83 376.84 65.73 399.72 74.35 360C91.25 282.14 78.08 261.82 51.04 180" stroke="rgba(255, 67, 148, 1)" stroke-width="2"></path><path d="M540 320.55C497.93 325.66 462.16 335.09 462.16 360C462.16 389.93 492.6 419.21 540 430.24C621.52 449.21 644.41 445.77 720 420C747.42 410.65 746.02 388.14 746.02 360C746.02 342.49 738.98 332.33 720 328.7C635.97 312.61 626.85 310.01 540 320.55" stroke="rgba(255, 67, 148, 1)" stroke-width="2"></path><path d="M118.21 180C78.95 115.18 39.91 136.56 0 75.79C-19.19 46.56 -26.67 11.23 0 0C63.33 -26.67 90 0 180 0C187.5 0 187.64 -1.4 195 0C277.64 15.67 276.6 26.33 360 34.14C449.1 42.48 452.69 17.18 540 32.31C632.69 48.37 635.84 105.2 720 96.52C792.44 89.05 783.13 37.57 853.2 0C873.13 -10.69 876.6 0 900 0C990 0 990 0 1080 0C1127.85 0 1137.41 -20.84 1175.7 0C1227.41 28.13 1204.87 80.42 1260 97.94C1337.02 122.42 1351.41 99.24 1440 84C1531.41 68.27 1569.24 8.93 1620 36C1659.24 56.93 1620 108 1620 180C1620 270 1620 270 1620 360C1620 450 1620 450 1620 540C1620 630 1658.11 668.11 1620 720C1592.01 758.11 1516.39 758.11 1487.81 720C1448.89 668.11 1504.1 613.77 1485 540C1480.2 521.46 1462.02 535.38 1440 535.38C1435.43 535.38 1433.16 535.57 1431.82 540C1405.34 627.88 1435.86 666.05 1384.36 720C1349.95 756.05 1322.18 720 1260 720C1215 720 1196.87 748.15 1170 720C1110.96 658.15 1122.63 631.87 1088.18 540C1077.63 511.87 1085.02 480 1080 480C1074.93 480 1089.73 521.49 1068 540C999.73 598.15 975.14 576.22 900 633.33C856.73 666.22 876.08 698.38 831.18 720C786.08 741.72 775.59 720 720 720C630 720 630 720 540 720C472.04 720 404.08 753.84 404.08 720C404.08 663.84 452.19 587.76 540 540C610.15 501.85 631.16 548.18 720 548.18C727.16 548.18 729.19 546.6 732 540C769.31 452.51 803.87 443.69 800.24 360C797.87 305.43 773.45 284.24 720 263.48C643.33 233.69 625.3 239.38 540 258.9C445.3 280.58 453.49 314.37 360 345.88C303.49 364.92 249.7 322.63 240 360C224.5 419.69 324.48 458.85 309.6 540C294.48 622.49 253.25 625.75 180 687.27C146.09 715.75 139.21 712.01 95.29 720C49.21 728.38 16.49 751.15 0 720C-31.15 661.15 0 630 0 540C0 513.87 -16.87 505.38 0 487.74C69.21 415.38 140.67 442 172.17 360C199.78 288.13 165.03 257.29 118.21 180" stroke="rgba(255, 67, 148, 1)" stroke-width="2"></path><path d="M40.65 0C40.65 4.3 14.75 16.58 0 16.58C-5.57 16.58 -5.89 2.4 0 0C14.44 -5.89 40.65 -3.99 40.65 0" stroke="rgba(255, 67, 148, 1)" stroke-width="2"></path><path d="M195 180C195 143.9 274.94 119.69 360 111.72C447.44 103.53 449.26 135.08 540 147.69C629.26 160.09 632.85 174.76 720 161.74C812.85 147.87 823.26 87.95 900 93.91C940.76 97.08 939.59 132.28 955 180C982.55 265.32 1001.19 277.18 985.91 360C973.69 426.24 935.21 478.13 900 478.13C869.48 478.13 888.28 412.58 854.46 360C798.28 272.65 804.72 242.11 720 198.26C647.49 160.74 627.6 182.81 540 197.26C447.6 212.5 447.99 262.05 360 257.65C275.49 253.42 195 216.87 195 180" stroke="rgba(255, 67, 148, 1)" stroke-width="2"></path><path d="M1080 72.86C1036.11 72.86 974.48 19.98 974.48 0C974.48 -16.45 1027.24 0 1080 0C1099.36 0 1118.73 -11.64 1118.73 0C1118.73 24.79 1108.24 72.86 1080 72.86" stroke="rgba(255, 67, 148, 1)" stroke-width="2"></path><path d="M1225.16 180C1232.29 163.32 1241.37 168.11 1260 164.12C1348.79 145.11 1349.42 143.59 1440 134C1529.42 124.53 1550.75 108.3 1620 126C1640.75 131.3 1620 153 1620 180C1620 270 1620 270 1620 360C1620 390 1642.5 412.5 1620 420C1552.5 442.5 1524.98 398.75 1440 420C1344.98 443.75 1331.14 526.18 1260 510C1199.28 496.18 1184.63 439.11 1176.28 360C1167.21 274.11 1190.43 261.26 1225.16 180" stroke="rgba(255, 67, 148, 1)" stroke-width="2"></path><path d="M70 540C70 513.59 132.23 481.76 180 481.76C207.03 481.76 219.6 512.11 219.6 540C219.6 563.73 205.08 585 180 585C130.28 585 70 565.21 70 540" stroke="rgba(255, 67, 148, 1)" stroke-width="2"></path><path d="M495.92 720C495.92 701.79 510.26 661.62 540 661.62C599.8 661.62 675 704.78 675 720C675 733.97 607.5 720 540 720C517.96 720 495.92 730.98 495.92 720" stroke="rgba(255, 67, 148, 1)" stroke-width="2"></path><path d="M1229.21 720C1229.21 663.51 1241.86 582.35 1260 582.35C1278.53 582.35 1302.55 666.87 1302.55 720C1302.55 735.69 1281.28 720 1260 720C1244.61 720 1229.21 732.33 1229.21 720" stroke="rgba(255, 67, 148, 1)" stroke-width="2"></path><path d="M1558.13 720C1558.13 691.27 1603.04 630 1620 630C1633.98 630 1638.33 693.33 1620 720C1607.4 738.33 1558.13 736.27 1558.13 720" stroke="rgba(255, 67, 148, 1)" stroke-width="2"></path></g><defs><mask id="SvgjsMask1122"><rect width="1500" height="720" fill="#ffffff"></rect></mask></defs></svg>