<svg xmlns="http://www.w3.org/2000/svg" version="1.1" xmlns:xlink="http://www.w3.org/1999/xlink" xmlns:svgjs="http://svgjs.dev/svgjs" width="1440" height="560" preserveAspectRatio="none" viewBox="0 0 1440 560"><g mask="url(&quot;#SvgjsMask1008&quot;)" fill="none"><path d="M1354.51-65.23C1172.27-63.35 1019.96 127.6 652.84 132.48 285.72 137.36 136.15 364.58-48.83 367.68" stroke="rgba(255, 121, 148, 0.8)" stroke-width="2"></path><path d="M1096.19-107.63C949.18-105.47 834.08 65.09 536 71.4 237.93 77.71 127.11 296.6-24.18 301" stroke="rgba(255, 121, 148, 0.8)" stroke-width="2"></path><path d="M516.35-13.61C400.85 78.49 480.4 512.05 272.63 524.69 64.86 537.33-88.04 386.07-214.82 384.69" stroke="rgba(255, 121, 148, 0.8)" stroke-width="2"></path><path d="M667.36-38.2C513 1.6 458 420.95 228.14 424.03-1.72 427.11-91.47 237.67-211.08 233.63" stroke="rgba(255, 121, 148, 0.8)" stroke-width="2"></path><path d="M1209.77-32.26C1015.67-9.55 897.08 422.3 574.43 423.18 251.79 424.06 107.95 197.07-60.9 193.58" stroke="rgba(255, 121, 148, 0.8)" stroke-width="2"></path></g><defs><mask id="SvgjsMask1008"><rect width="1440" height="560" fill="#ffffff"></rect></mask></defs></svg>