<svg xmlns="http://www.w3.org/2000/svg" version="1.1" xmlns:xlink="http://www.w3.org/1999/xlink" xmlns:svgjs="http://svgjs.dev/svgjs" width="1445" height="1089" preserveAspectRatio="none" viewBox="0 0 1445 1089"><g clip-path="url(&quot;#SvgjsClipPath1539&quot;)" fill="none"><circle r="181.5" cx="-34.44" cy="-161.19" stroke="#ff4394" stroke-opacity="1" stroke-width="2"></circle><circle r="138.105" cx="903.72" cy="731.83" stroke="#ff4394" stroke-opacity="1" stroke-width="2"></circle><circle r="138.84" cx="700.89" cy="770.7" stroke="#ff4394" stroke-opacity="1" stroke-width="2"></circle><circle r="344.615" cx="29.01" cy="106.71" stroke="#ff4394" stroke-opacity="1" stroke-width="2"></circle><circle r="269.435" cx="546.06" cy="760.67" stroke="#ff4394" stroke-opacity="1" stroke-width="2"></circle><circle r="339.045" cx="527.71" cy="1022.3" stroke="#ff4394" stroke-opacity="1" stroke-width="2"></circle><circle r="190.895" cx="1004.83" cy="120.36" stroke="#ff4394" stroke-opacity="1" stroke-width="2"></circle><circle r="246.48" cx="1317.17" cy="706.32" stroke="#ff4394" stroke-opacity="1" stroke-width="2"></circle><circle r="153.035" cx="801.82" cy="30.89" stroke="#ff4394" stroke-opacity="1" stroke-width="2"></circle><circle r="202.48" cx="1020.8" cy="919.22" stroke="#ff4394" stroke-opacity="1" stroke-width="2"></circle><circle r="263.37" cx="427.95" cy="1083.48" stroke="#ff4394" stroke-opacity="1" stroke-width="2"></circle><circle r="264.49" cx="1298.92" cy="270.07" stroke="#ff4394" stroke-opacity="1" stroke-width="2"></circle><circle r="93.235" cx="242.82" cy="344.39" stroke="#ff4394" stroke-opacity="1" stroke-width="2"></circle><circle r="244.805" cx="364.53" cy="242.29" stroke="#ff4394" stroke-opacity="1" stroke-width="2"></circle><circle r="97.585" cx="554.53" cy="381.62" stroke="#ff4394" stroke-opacity="1" stroke-width="2"></circle><circle r="156.92" cx="669.43" cy="647.73" stroke="#ff4394" stroke-opacity="1" stroke-width="2"></circle><circle r="208.83" cx="1287.9" cy="583.76" stroke="#ff4394" stroke-opacity="1" stroke-width="2"></circle><circle r="313.66" cx="984.45" cy="1012.23" stroke="#ff4394" stroke-opacity="1" stroke-width="2"></circle><circle r="320.915" cx="1022.53" cy="843.24" stroke="#ff4394" stroke-opacity="1" stroke-width="2"></circle><circle r="213.765" cx="1196.12" cy="995.1" stroke="#ff4394" stroke-opacity="1" stroke-width="2"></circle><circle r="135.145" cx="876.79" cy="364.56" stroke="#ff4394" stroke-opacity="1" stroke-width="2"></circle><circle r="270.245" cx="516.45" cy="309.42" stroke="#ff4394" stroke-opacity="1" stroke-width="2"></circle><circle r="230.785" cx="775.71" cy="1068.87" stroke="#ff4394" stroke-opacity="1" stroke-width="2"></circle><circle r="308.28" cx="1213.62" cy="354" stroke="#ff4394" stroke-opacity="1" stroke-width="2"></circle><circle r="248.19" cx="374.59" cy="976.02" stroke="#ff4394" stroke-opacity="1" stroke-width="2"></circle><circle r="353.93" cx="1018.04" cy="398.05" stroke="#ff4394" stroke-opacity="1" stroke-width="2"></circle><circle r="306.825" cx="999.21" cy="27.57" stroke="#ff4394" stroke-opacity="1" stroke-width="2"></circle></g><defs><clipPath id="SvgjsClipPath1539"><rect width="1445" height="1089" x="0" y="0"></rect></clipPath></defs></svg>