<svg xmlns="http://www.w3.org/2000/svg" version="1.1" xmlns:xlink="http://www.w3.org/1999/xlink" xmlns:svgjs="http://svgjs.dev/svgjs" width="1440" height="560" preserveAspectRatio="none" viewBox="0 0 1440 560"><g mask="url(&quot;#SvgjsMask1000&quot;)" fill="none"><path d="M -225.43449531254748,490 C -177.43,431.6 -81.43,186.8 14.565504687452524,198 C 110.57,209.2 158.57,582 254.56550468745252,546 C 350.57,510 398.57,66.6 494.5655046874525,18 C 590.57,-30.6 638.57,254.4 734.5655046874525,303 C 830.57,351.6 878.57,235.8 974.5655046874525,261 C 1070.57,286.2 1118.57,455.4 1214.5655046874526,429 C 1310.57,402.6 1409.48,123 1454.5655046874526,129 C 1499.65,135 1442.91,393 1440,459" stroke="rgba(255, 35, 130, 1)" stroke-width="2"></path><path d="M -453.8689620160188,257 C -405.87,278.4 -309.87,363.8 -213.86896201601883,364 C -117.87,364.2 -69.87,261.4 26.131037983981173,258 C 122.13,254.6 170.13,391 266.1310379839812,347 C 362.13,303 410.13,38.6 506.1310379839812,38 C 602.13,37.4 650.13,298 746.1310379839812,344 C 842.13,390 890.13,229.2 986.1310379839812,268 C 1082.13,306.8 1135.36,563.8 1226.131037983981,538 C 1316.9,512.2 1397.23,218.8 1440,139" stroke="rgba(255, 35, 130, 1)" stroke-width="2"></path><path d="M -187.14954201988388,315 C -139.15,302.4 -43.15,214.6 52.850457980116126,252 C 148.85,289.4 196.85,515.4 292.8504579801161,502 C 388.85,488.6 436.85,196.8 532.8504579801162,185 C 628.85,173.2 676.85,476 772.8504579801162,443 C 868.85,410 916.85,9.8 1012.8504579801162,20 C 1108.85,30.2 1156.85,469 1252.850457980116,494 C 1348.85,519 1455.42,184.2 1492.850457980116,145 C 1530.28,105.8 1450.57,267.4 1440,298" stroke="rgba(255, 35, 130, 1)" stroke-width="2"></path><path d="M -42.75184324876511,558 C 5.25,447.4 101.25,43.8 197.2481567512349,5 C 293.25,-33.8 341.25,334.4 437.2481567512349,364 C 533.25,393.6 581.25,148.4 677.2481567512349,153 C 773.25,157.6 821.25,391.2 917.2481567512349,387 C 1013.25,382.8 1061.25,98.8 1157.248156751235,132 C 1253.25,165.2 1301.25,538 1397.248156751235,553 C 1493.25,568 1628.7,238.6 1637.248156751235,207 C 1645.8,175.4 1479.45,357.4 1440,395" stroke="rgba(255, 35, 130, 1)" stroke-width="2"></path><path d="M -471.4694085543323,192 C -423.47,225.6 -327.47,350.4 -231.46940855433232,360 C -135.47,369.6 -87.47,239.6 8.530591445667682,240 C 104.53,240.4 152.53,374 248.53059144566768,362 C 344.53,350 392.53,178.6 488.5305914456677,180 C 584.53,181.4 632.53,365.4 728.5305914456677,369 C 824.53,372.6 872.53,205.6 968.5305914456677,198 C 1064.53,190.4 1114.24,341.4 1208.5305914456676,331 C 1302.82,320.6 1393.71,183 1440,146" stroke="rgba(255, 35, 130, 1)" stroke-width="2"></path></g><defs><mask id="SvgjsMask1000"><rect width="1440" height="560" fill="#ffffff"></rect></mask></defs></svg>